{
    "asset" : {
        "generator" : "Khronos glTF Blender I/O v1.7.33",
        "version" : "2.0"
    },
    "scene" : 0,
    "scenes" : [
        {
            "name" : "Scene",
            "nodes" : [
                0,
                1,
                2,
                3,
                4,
                5,
                6
            ]
        }
    ],
    "nodes" : [
        {
            "mesh" : 0,
            "name" : "model",
            "rotation" : [
                0.7071068286895752,
                0,
                0,
                0.7071067094802856
            ],
            "scale" : [
                9,
                9,
                9
            ],
            "translation" : [
                -9.993786811828613,
                0,
                -26.972230911254883
            ]
        },
        {
            "mesh" : 1,
            "name" : "model.113",
            "rotation" : [
                0.7071068286895752,
                0,
                0,
                0.7071067094802856
            ],
            "scale" : [
                9,
                9,
                9
            ],
            "translation" : [
                -9.993786811828613,
                0,
                -26.972230911254883
            ]
        },
        {
            "mesh" : 2,
            "name" : "model.114",
            "rotation" : [
                0.7071068286895752,
                0,
                0,
                0.7071067094802856
            ],
            "scale" : [
                9,
                9,
                9
            ],
            "translation" : [
                -9.993786811828613,
                0,
                -26.972230911254883
            ]
        },
        {
            "mesh" : 3,
            "name" : "model.115",
            "rotation" : [
                0.7071068286895752,
                0,
                0,
                0.7071067094802856
            ],
            "scale" : [
                9,
                9,
                9
            ],
            "translation" : [
                -9.993786811828613,
                0,
                -26.972230911254883
            ]
        },
        {
            "mesh" : 4,
            "name" : "model.116",
            "rotation" : [
                0.7071068286895752,
                0,
                0,
                0.7071067094802856
            ],
            "scale" : [
                9,
                9,
                9
            ],
            "translation" : [
                -9.993786811828613,
                0,
                -26.972230911254883
            ]
        },
        {
            "mesh" : 5,
            "name" : "model.117",
            "rotation" : [
                0.7071068286895752,
                0,
                0,
                0.7071067094802856
            ],
            "scale" : [
                9,
                9,
                9
            ],
            "translation" : [
                -9.993786811828613,
                0,
                -26.972230911254883
            ]
        },
        {
            "mesh" : 6,
            "name" : "model.118",
            "rotation" : [
                0.7071068286895752,
                0,
                0,
                0.7071067094802856
            ],
            "scale" : [
                9,
                9,
                9
            ],
            "translation" : [
                -9.993786811828613,
                0,
                -26.972230911254883
            ]
        }
    ],
    "materials" : [
        {
            "doubleSided" : true,
            "name" : "mat19",
            "pbrMetallicRoughness" : {
                "baseColorFactor" : [
                    0.8700000047683716,
                    0.6000000238418579,
                    0.27000001072883606,
                    1
                ],
                "metallicFactor" : 0,
                "roughnessFactor" : 0.5
            }
        },
        {
            "doubleSided" : true,
            "name" : "mat20",
            "pbrMetallicRoughness" : {
                "baseColorFactor" : [
                    0.4699999988079071,
                    0.33000001311302185,
                    0.2800000011920929,
                    1
                ],
                "metallicFactor" : 0,
                "roughnessFactor" : 0.5
            }
        }
    ],
    "meshes" : [
        {
            "name" : "model",
            "primitives" : [
                {
                    "attributes" : {
                        "POSITION" : 0,
                        "NORMAL" : 1
                    },
                    "indices" : 2,
                    "material" : 0
                }
            ]
        },
        {
            "name" : "model.113",
            "primitives" : [
                {
                    "attributes" : {
                        "POSITION" : 3,
                        "NORMAL" : 4
                    },
                    "indices" : 5,
                    "material" : 1
                }
            ]
        },
        {
            "name" : "model.114",
            "primitives" : [
                {
                    "attributes" : {
                        "POSITION" : 6,
                        "NORMAL" : 7
                    },
                    "indices" : 8,
                    "material" : 1
                }
            ]
        },
        {
            "name" : "model.115",
            "primitives" : [
                {
                    "attributes" : {
                        "POSITION" : 9,
                        "NORMAL" : 10
                    },
                    "indices" : 11,
                    "material" : 1
                }
            ]
        },
        {
            "name" : "model.116",
            "primitives" : [
                {
                    "attributes" : {
                        "POSITION" : 12,
                        "NORMAL" : 13
                    },
                    "indices" : 14,
                    "material" : 1
                }
            ]
        },
        {
            "name" : "model.117",
            "primitives" : [
                {
                    "attributes" : {
                        "POSITION" : 15,
                        "NORMAL" : 16
                    },
                    "indices" : 17,
                    "material" : 1
                }
            ]
        },
        {
            "name" : "model.118",
            "primitives" : [
                {
                    "attributes" : {
                        "POSITION" : 18,
                        "NORMAL" : 19
                    },
                    "indices" : 20,
                    "material" : 1
                }
            ]
        }
    ],
    "accessors" : [
        {
            "bufferView" : 0,
            "componentType" : 5126,
            "count" : 512,
            "max" : [
                1.1864149570465088,
                3.040400981903076,
                0.6581798791885376
            ],
            "min" : [
                1.0230369567871094,
                2.8771629333496094,
                0.49276039004325867
            ],
            "type" : "VEC3"
        },
        {
            "bufferView" : 1,
            "componentType" : 5126,
            "count" : 512,
            "type" : "VEC3"
        },
        {
            "bufferView" : 2,
            "componentType" : 5123,
            "count" : 564,
            "type" : "SCALAR"
        },
        {
            "bufferView" : 3,
            "componentType" : 5126,
            "count" : 278,
            "max" : [
                1.113247036933899,
                2.9502930641174316,
                0.5850496888160706
            ],
            "min" : [
                1.0405399799346924,
                2.8783140182495117,
                0.5012935996055603
            ],
            "type" : "VEC3"
        },
        {
            "bufferView" : 4,
            "componentType" : 5126,
            "count" : 278,
            "type" : "VEC3"
        },
        {
            "bufferView" : 5,
            "componentType" : 5123,
            "count" : 288,
            "type" : "SCALAR"
        },
        {
            "bufferView" : 6,
            "componentType" : 5126,
            "count" : 326,
            "max" : [
                1.1746619939804077,
                3.039541006088257,
                0.5842918157577515
            ],
            "min" : [
                1.1109509468078613,
                2.940531015396118,
                0.5069469213485718
            ],
            "type" : "VEC3"
        },
        {
            "bufferView" : 7,
            "componentType" : 5126,
            "count" : 326,
            "type" : "VEC3"
        },
        {
            "bufferView" : 8,
            "componentType" : 5123,
            "count" : 342,
            "type" : "SCALAR"
        },
        {
            "bufferView" : 9,
            "componentType" : 5126,
            "count" : 232,
            "max" : [
                1.129526972770691,
                3.0257608890533447,
                0.6656761169433594
            ],
            "min" : [
                1.0461829900741577,
                2.92755389213562,
                0.6126382946968079
            ],
            "type" : "VEC3"
        },
        {
            "bufferView" : 10,
            "componentType" : 5126,
            "count" : 232,
            "type" : "VEC3"
        },
        {
            "bufferView" : 11,
            "componentType" : 5123,
            "count" : 240,
            "type" : "SCALAR"
        },
        {
            "bufferView" : 12,
            "componentType" : 5126,
            "count" : 232,
            "max" : [
                1.076369047164917,
                3.034986972808838,
                0.5931351780891418
            ],
            "min" : [
                1.0351649522781372,
                2.9947690963745117,
                0.5432149767875671
            ],
            "type" : "VEC3"
        },
        {
            "bufferView" : 13,
            "componentType" : 5126,
            "count" : 232,
            "type" : "VEC3"
        },
        {
            "bufferView" : 14,
            "componentType" : 5123,
            "count" : 240,
            "type" : "SCALAR"
        },
        {
            "bufferView" : 15,
            "componentType" : 5126,
            "count" : 232,
            "max" : [
                1.1282949447631836,
                2.8992929458618164,
                0.6323065161705017
            ],
            "min" : [
                1.0829310417175293,
                2.8840479850769043,
                0.6025505065917969
            ],
            "type" : "VEC3"
        },
        {
            "bufferView" : 16,
            "componentType" : 5126,
            "count" : 232,
            "type" : "VEC3"
        },
        {
            "bufferView" : 17,
            "componentType" : 5123,
            "count" : 240,
            "type" : "SCALAR"
        },
        {
            "bufferView" : 18,
            "componentType" : 5126,
            "count" : 232,
            "max" : [
                1.1853059530258179,
                2.9595870971679688,
                0.6047214865684509
            ],
            "min" : [
                1.1541359424591064,
                2.9115710258483887,
                0.5541728138923645
            ],
            "type" : "VEC3"
        },
        {
            "bufferView" : 19,
            "componentType" : 5126,
            "count" : 232,
            "type" : "VEC3"
        },
        {
            "bufferView" : 20,
            "componentType" : 5123,
            "count" : 240,
            "type" : "SCALAR"
        }
    ],
    "bufferViews" : [
        {
            "buffer" : 0,
            "byteLength" : 6144,
            "byteOffset" : 0
        },
        {
            "buffer" : 0,
            "byteLength" : 6144,
            "byteOffset" : 6144
        },
        {
            "buffer" : 0,
            "byteLength" : 1128,
            "byteOffset" : 12288
        },
        {
            "buffer" : 0,
            "byteLength" : 3336,
            "byteOffset" : 13416
        },
        {
            "buffer" : 0,
            "byteLength" : 3336,
            "byteOffset" : 16752
        },
        {
            "buffer" : 0,
            "byteLength" : 576,
            "byteOffset" : 20088
        },
        {
            "buffer" : 0,
            "byteLength" : 3912,
            "byteOffset" : 20664
        },
        {
            "buffer" : 0,
            "byteLength" : 3912,
            "byteOffset" : 24576
        },
        {
            "buffer" : 0,
            "byteLength" : 684,
            "byteOffset" : 28488
        },
        {
            "buffer" : 0,
            "byteLength" : 2784,
            "byteOffset" : 29172
        },
        {
            "buffer" : 0,
            "byteLength" : 2784,
            "byteOffset" : 31956
        },
        {
            "buffer" : 0,
            "byteLength" : 480,
            "byteOffset" : 34740
        },
        {
            "buffer" : 0,
            "byteLength" : 2784,
            "byteOffset" : 35220
        },
        {
            "buffer" : 0,
            "byteLength" : 2784,
            "byteOffset" : 38004
        },
        {
            "buffer" : 0,
            "byteLength" : 480,
            "byteOffset" : 40788
        },
        {
            "buffer" : 0,
            "byteLength" : 2784,
            "byteOffset" : 41268
        },
        {
            "buffer" : 0,
            "byteLength" : 2784,
            "byteOffset" : 44052
        },
        {
            "buffer" : 0,
            "byteLength" : 480,
            "byteOffset" : 46836
        },
        {
            "buffer" : 0,
            "byteLength" : 2784,
            "byteOffset" : 47316
        },
        {
            "buffer" : 0,
            "byteLength" : 2784,
            "byteOffset" : 50100
        },
        {
            "buffer" : 0,
            "byteLength" : 480,
            "byteOffset" : 52884
        }
    ],
    "buffers" : [
        {
            "byteLength" : 53364,
            "uri" : "data:application/octet-stream;base64,"
        }
    ]
}
