{
    "asset" : {
        "generator" : "Khronos glTF Blender I/O v1.7.33",
        "version" : "2.0"
    },
    "scene" : 0,
    "scenes" : [
        {
            "name" : "Scene",
            "nodes" : [
                0
            ]
        }
    ],
    "nodes" : [
        {
            "mesh" : 0,
            "name" : "moon",
            "rotation" : [
                0.7071068286895752,
                0,
                0,
                0.7071067094802856
            ],
            "scale" : [
                9,
                9,
                9
            ],
            "translation" : [
                -1.780283808708191,
                0,
                -13.759031295776367
            ]
        }
    ],
    "materials" : [
        {
            "doubleSided" : true,
            "name" : "mat15",
            "pbrMetallicRoughness" : {
                "baseColorFactor" : [
                    0.8100000023841858,
                    0.8500000238418579,
                    0.8600000143051147,
                    1
                ],
                "metallicFactor" : 0,
                "roughnessFactor" : 0.5
            }
        }
    ],
    "meshes" : [
        {
            "name" : "model.060",
            "primitives" : [
                {
                    "attributes" : {
                        "POSITION" : 0,
                        "NORMAL" : 1
                    },
                    "indices" : 2,
                    "material" : 0
                }
            ]
        }
    ],
    "accessors" : [
        {
            "bufferView" : 0,
            "componentType" : 5126,
            "count" : 556,
            "max" : [
                0.2647725045681,
                1.5887889862060547,
                0.12252549827098846
            ],
            "min" : [
                0.1445678025484085,
                1.4697049856185913,
                0.0047838687896728516
            ],
            "type" : "VEC3"
        },
        {
            "bufferView" : 1,
            "componentType" : 5126,
            "count" : 556,
            "type" : "VEC3"
        },
        {
            "bufferView" : 2,
            "componentType" : 5123,
            "count" : 600,
            "type" : "SCALAR"
        }
    ],
    "bufferViews" : [
        {
            "buffer" : 0,
            "byteLength" : 6672,
            "byteOffset" : 0
        },
        {
            "buffer" : 0,
            "byteLength" : 6672,
            "byteOffset" : 6672
        },
        {
            "buffer" : 0,
            "byteLength" : 1200,
            "byteOffset" : 13344
        }
    ],
    "buffers" : [
        {
            "byteLength" : 14544,
            "uri" : "data:application/octet-stream;base64,"
        }
    ]
}
