{
    "asset" : {
        "generator" : "Khronos glTF Blender I/O v1.7.33",
        "version" : "2.0"
    },
    "scene" : 0,
    "scenes" : [
        {
            "name" : "Scene",
            "nodes" : [
                0,
                1,
                2,
                3,
                4,
                5,
                6,
                7,
                8
            ]
        }
    ],
    "nodes" : [
        {
            "mesh" : 0,
            "name" : "model.001",
            "rotation" : [
                0.7071068286895752,
                0,
                0,
                0.7071067094802856
            ],
            "scale" : [
                9,
                9,
                9
            ],
            "translation" : [
                5.12765645980835,
                0,
                -23.481494903564453
            ]
        },
        {
            "mesh" : 1,
            "name" : "model.119",
            "rotation" : [
                0.7071068286895752,
                0,
                0,
                0.7071067094802856
            ],
            "scale" : [
                9,
                9,
                9
            ],
            "translation" : [
                5.12765645980835,
                0,
                -23.481494903564453
            ]
        },
        {
            "mesh" : 2,
            "name" : "model.120",
            "rotation" : [
                0.7071068286895752,
                0,
                0,
                0.7071067094802856
            ],
            "scale" : [
                9,
                9,
                9
            ],
            "translation" : [
                5.12765645980835,
                0,
                -23.481494903564453
            ]
        },
        {
            "mesh" : 3,
            "name" : "model.121",
            "rotation" : [
                0.7071068286895752,
                0,
                0,
                0.7071067094802856
            ],
            "scale" : [
                9,
                9,
                9
            ],
            "translation" : [
                5.12765645980835,
                0,
                -23.481494903564453
            ]
        },
        {
            "mesh" : 4,
            "name" : "model.122",
            "rotation" : [
                0.7071068286895752,
                0,
                0,
                0.7071067094802856
            ],
            "scale" : [
                9,
                9,
                9
            ],
            "translation" : [
                5.12765645980835,
                0,
                -23.481494903564453
            ]
        },
        {
            "mesh" : 5,
            "name" : "model.123",
            "rotation" : [
                0.7071068286895752,
                0,
                0,
                0.7071067094802856
            ],
            "scale" : [
                9,
                9,
                9
            ],
            "translation" : [
                5.12765645980835,
                0,
                -23.481494903564453
            ]
        },
        {
            "mesh" : 6,
            "name" : "model.124",
            "rotation" : [
                0.7071068286895752,
                0,
                0,
                0.7071067094802856
            ],
            "scale" : [
                9,
                9,
                9
            ],
            "translation" : [
                5.12765645980835,
                0,
                -23.481494903564453
            ]
        },
        {
            "mesh" : 7,
            "name" : "model.125",
            "rotation" : [
                0.7071068286895752,
                0,
                0,
                0.7071067094802856
            ],
            "scale" : [
                9,
                9,
                9
            ],
            "translation" : [
                5.12765645980835,
                0,
                -23.481494903564453
            ]
        },
        {
            "mesh" : 8,
            "name" : "model.126",
            "rotation" : [
                0.7071068286895752,
                0,
                0,
                0.7071067094802856
            ],
            "scale" : [
                9,
                9,
                9
            ],
            "translation" : [
                5.12765645980835,
                0,
                -23.481494903564453
            ]
        }
    ],
    "materials" : [
        {
            "doubleSided" : true,
            "name" : "mat19",
            "pbrMetallicRoughness" : {
                "baseColorFactor" : [
                    0.8700000047683716,
                    0.6000000238418579,
                    0.27000001072883606,
                    1
                ],
                "metallicFactor" : 0,
                "roughnessFactor" : 0.5
            }
        },
        {
            "doubleSided" : true,
            "name" : "Material.001",
            "pbrMetallicRoughness" : {
                "baseColorFactor" : [
                    1,
                    0.6000000238418579,
                    0,
                    1
                ],
                "metallicFactor" : 0,
                "roughnessFactor" : 0.5
            }
        }
    ],
    "meshes" : [
        {
            "name" : "model.001",
            "primitives" : [
                {
                    "attributes" : {
                        "POSITION" : 0,
                        "NORMAL" : 1
                    },
                    "indices" : 2,
                    "material" : 0
                }
            ]
        },
        {
            "name" : "model.119",
            "primitives" : [
                {
                    "attributes" : {
                        "POSITION" : 3,
                        "NORMAL" : 4
                    },
                    "indices" : 5,
                    "material" : 1
                }
            ]
        },
        {
            "name" : "model.120",
            "primitives" : [
                {
                    "attributes" : {
                        "POSITION" : 6,
                        "NORMAL" : 7
                    },
                    "indices" : 8,
                    "material" : 1
                }
            ]
        },
        {
            "name" : "model.121",
            "primitives" : [
                {
                    "attributes" : {
                        "POSITION" : 9,
                        "NORMAL" : 10
                    },
                    "indices" : 11,
                    "material" : 1
                }
            ]
        },
        {
            "name" : "model.122",
            "primitives" : [
                {
                    "attributes" : {
                        "POSITION" : 12,
                        "NORMAL" : 13
                    },
                    "indices" : 14,
                    "material" : 1
                }
            ]
        },
        {
            "name" : "model.123",
            "primitives" : [
                {
                    "attributes" : {
                        "POSITION" : 15,
                        "NORMAL" : 16
                    },
                    "indices" : 17,
                    "material" : 1
                }
            ]
        },
        {
            "name" : "model.124",
            "primitives" : [
                {
                    "attributes" : {
                        "POSITION" : 18,
                        "NORMAL" : 19
                    },
                    "indices" : 20,
                    "material" : 1
                }
            ]
        },
        {
            "name" : "model.125",
            "primitives" : [
                {
                    "attributes" : {
                        "POSITION" : 21,
                        "NORMAL" : 22
                    },
                    "indices" : 23,
                    "material" : 1
                }
            ]
        },
        {
            "name" : "model.126",
            "primitives" : [
                {
                    "attributes" : {
                        "POSITION" : 24,
                        "NORMAL" : 25
                    },
                    "indices" : 26,
                    "material" : 1
                }
            ]
        }
    ],
    "accessors" : [
        {
            "bufferView" : 0,
            "componentType" : 5126,
            "count" : 518,
            "max" : [
                -0.43843621015548706,
                2.7336909770965576,
                0.4418272078037262
            ],
            "min" : [
                -0.7094252109527588,
                2.4589030742645264,
                0.16503919661045074
            ],
            "type" : "VEC3"
        },
        {
            "bufferView" : 1,
            "componentType" : 5126,
            "count" : 518,
            "type" : "VEC3"
        },
        {
            "bufferView" : 2,
            "componentType" : 5123,
            "count" : 564,
            "type" : "SCALAR"
        },
        {
            "bufferView" : 3,
            "componentType" : 5126,
            "count" : 314,
            "max" : [
                -0.44946059584617615,
                2.6923940181732178,
                0.42982110381126404
            ],
            "min" : [
                -0.6463271975517273,
                2.574594020843506,
                0.33333590626716614
            ],
            "type" : "VEC3"
        },
        {
            "bufferView" : 4,
            "componentType" : 5126,
            "count" : 314,
            "type" : "VEC3"
        },
        {
            "bufferView" : 5,
            "componentType" : 5123,
            "count" : 324,
            "type" : "SCALAR"
        },
        {
            "bufferView" : 6,
            "componentType" : 5126,
            "count" : 312,
            "max" : [
                -0.6247506737709045,
                2.716732978820801,
                0.40538549423217773
            ],
            "min" : [
                -0.712088406085968,
                2.5391480922698975,
                0.23479120433330536
            ],
            "type" : "VEC3"
        },
        {
            "bufferView" : 7,
            "componentType" : 5126,
            "count" : 312,
            "type" : "VEC3"
        },
        {
            "bufferView" : 8,
            "componentType" : 5123,
            "count" : 324,
            "type" : "SCALAR"
        },
        {
            "bufferView" : 9,
            "componentType" : 5126,
            "count" : 312,
            "max" : [
                -0.6021677851676941,
                2.6132969856262207,
                0.4141787886619568
            ],
            "min" : [
                -0.7042986154556274,
                2.502993106842041,
                0.2166893035173416
            ],
            "type" : "VEC3"
        },
        {
            "bufferView" : 10,
            "componentType" : 5126,
            "count" : 312,
            "type" : "VEC3"
        },
        {
            "bufferView" : 11,
            "componentType" : 5123,
            "count" : 324,
            "type" : "SCALAR"
        },
        {
            "bufferView" : 12,
            "componentType" : 5126,
            "count" : 312,
            "max" : [
                -0.5124738216400146,
                2.604788064956665,
                0.31472769379615784
            ],
            "min" : [
                -0.7056909203529358,
                2.4656269550323486,
                0.20049290359020233
            ],
            "type" : "VEC3"
        },
        {
            "bufferView" : 13,
            "componentType" : 5126,
            "count" : 312,
            "type" : "VEC3"
        },
        {
            "bufferView" : 14,
            "componentType" : 5123,
            "count" : 324,
            "type" : "SCALAR"
        },
        {
            "bufferView" : 15,
            "componentType" : 5126,
            "count" : 312,
            "max" : [
                -0.44034621119499207,
                2.62900710105896,
                0.37933170795440674
            ],
            "min" : [
                -0.5419315099716187,
                2.470365047454834,
                0.1993945986032486
            ],
            "type" : "VEC3"
        },
        {
            "bufferView" : 16,
            "componentType" : 5126,
            "count" : 312,
            "type" : "VEC3"
        },
        {
            "bufferView" : 17,
            "componentType" : 5123,
            "count" : 324,
            "type" : "SCALAR"
        },
        {
            "bufferView" : 18,
            "componentType" : 5126,
            "count" : 312,
            "max" : [
                -0.43875840306282043,
                2.718453884124756,
                0.33785438537597656
            ],
            "min" : [
                -0.6172742247581482,
                2.5938539505004883,
                0.2065896987915039
            ],
            "type" : "VEC3"
        },
        {
            "bufferView" : 19,
            "componentType" : 5126,
            "count" : 312,
            "type" : "VEC3"
        },
        {
            "bufferView" : 20,
            "componentType" : 5123,
            "count" : 324,
            "type" : "SCALAR"
        },
        {
            "bufferView" : 21,
            "componentType" : 5126,
            "count" : 312,
            "max" : [
                -0.470201313495636,
                2.686579942703247,
                0.23673780262470245
            ],
            "min" : [
                -0.6580939888954163,
                2.5185389518737793,
                0.15621979534626007
            ],
            "type" : "VEC3"
        },
        {
            "bufferView" : 22,
            "componentType" : 5126,
            "count" : 312,
            "type" : "VEC3"
        },
        {
            "bufferView" : 23,
            "componentType" : 5123,
            "count" : 324,
            "type" : "SCALAR"
        },
        {
            "bufferView" : 24,
            "componentType" : 5126,
            "count" : 316,
            "max" : [
                -0.5153957009315491,
                2.568021059036255,
                0.4338366985321045
            ],
            "min" : [
                -0.6410499215126038,
                2.463747024536133,
                0.24067969620227814
            ],
            "type" : "VEC3"
        },
        {
            "bufferView" : 25,
            "componentType" : 5126,
            "count" : 316,
            "type" : "VEC3"
        },
        {
            "bufferView" : 26,
            "componentType" : 5123,
            "count" : 324,
            "type" : "SCALAR"
        }
    ],
    "bufferViews" : [
        {
            "buffer" : 0,
            "byteLength" : 6216,
            "byteOffset" : 0
        },
        {
            "buffer" : 0,
            "byteLength" : 6216,
            "byteOffset" : 6216
        },
        {
            "buffer" : 0,
            "byteLength" : 1128,
            "byteOffset" : 12432
        },
        {
            "buffer" : 0,
            "byteLength" : 3768,
            "byteOffset" : 13560
        },
        {
            "buffer" : 0,
            "byteLength" : 3768,
            "byteOffset" : 17328
        },
        {
            "buffer" : 0,
            "byteLength" : 648,
            "byteOffset" : 21096
        },
        {
            "buffer" : 0,
            "byteLength" : 3744,
            "byteOffset" : 21744
        },
        {
            "buffer" : 0,
            "byteLength" : 3744,
            "byteOffset" : 25488
        },
        {
            "buffer" : 0,
            "byteLength" : 648,
            "byteOffset" : 29232
        },
        {
            "buffer" : 0,
            "byteLength" : 3744,
            "byteOffset" : 29880
        },
        {
            "buffer" : 0,
            "byteLength" : 3744,
            "byteOffset" : 33624
        },
        {
            "buffer" : 0,
            "byteLength" : 648,
            "byteOffset" : 37368
        },
        {
            "buffer" : 0,
            "byteLength" : 3744,
            "byteOffset" : 38016
        },
        {
            "buffer" : 0,
            "byteLength" : 3744,
            "byteOffset" : 41760
        },
        {
            "buffer" : 0,
            "byteLength" : 648,
            "byteOffset" : 45504
        },
        {
            "buffer" : 0,
            "byteLength" : 3744,
            "byteOffset" : 46152
        },
        {
            "buffer" : 0,
            "byteLength" : 3744,
            "byteOffset" : 49896
        },
        {
            "buffer" : 0,
            "byteLength" : 648,
            "byteOffset" : 53640
        },
        {
            "buffer" : 0,
            "byteLength" : 3744,
            "byteOffset" : 54288
        },
        {
            "buffer" : 0,
            "byteLength" : 3744,
            "byteOffset" : 58032
        },
        {
            "buffer" : 0,
            "byteLength" : 648,
            "byteOffset" : 61776
        },
        {
            "buffer" : 0,
            "byteLength" : 3744,
            "byteOffset" : 62424
        },
        {
            "buffer" : 0,
            "byteLength" : 3744,
            "byteOffset" : 66168
        },
        {
            "buffer" : 0,
            "byteLength" : 648,
            "byteOffset" : 69912
        },
        {
            "buffer" : 0,
            "byteLength" : 3792,
            "byteOffset" : 70560
        },
        {
            "buffer" : 0,
            "byteLength" : 3792,
            "byteOffset" : 74352
        },
        {
            "buffer" : 0,
            "byteLength" : 648,
            "byteOffset" : 78144
        }
    ],
    "buffers" : [
        {
            "byteLength" : 78792,
            "uri" : "data:application/octet-stream;base64,"
        }
    ]
}
