{
    "asset" : {
        "generator" : "Khronos glTF Blender I/O v1.7.33",
        "version" : "2.0"
    },
    "scene" : 0,
    "scenes" : [
        {
            "name" : "Scene",
            "nodes" : [
                0,
                1,
                2,
                3,
                4,
                5,
                6,
                7,
                8,
                9,
                10,
                11
            ]
        }
    ],
    "nodes" : [
        {
            "mesh" : 0,
            "name" : "model.057",
            "rotation" : [
                0.7071068286895752,
                0,
                0,
                0.7071067094802856
            ],
            "scale" : [
                9,
                9,
                9
            ],
            "translation" : [
                -2.445147752761841,
                0,
                -16.23008155822754
            ]
        },
        {
            "mesh" : 1,
            "name" : "model.059",
            "rotation" : [
                0.7071068286895752,
                0,
                0,
                0.7071067094802856
            ],
            "scale" : [
                9,
                9,
                9
            ],
            "translation" : [
                -2.445147752761841,
                0,
                -16.23008155822754
            ]
        },
        {
            "mesh" : 2,
            "name" : "model.155",
            "rotation" : [
                0.7071068286895752,
                0,
                0,
                0.7071067094802856
            ],
            "scale" : [
                9,
                9,
                9
            ],
            "translation" : [
                -2.445147752761841,
                0,
                -16.23008155822754
            ]
        },
        {
            "mesh" : 3,
            "name" : "model.156",
            "rotation" : [
                0.7071068286895752,
                0,
                0,
                0.7071067094802856
            ],
            "scale" : [
                9,
                9,
                9
            ],
            "translation" : [
                -2.445147752761841,
                0,
                -16.23008155822754
            ]
        },
        {
            "mesh" : 4,
            "name" : "model.157",
            "rotation" : [
                0.7071068286895752,
                0,
                0,
                0.7071067094802856
            ],
            "scale" : [
                9,
                9,
                9
            ],
            "translation" : [
                -2.445147752761841,
                0,
                -16.23008155822754
            ]
        },
        {
            "mesh" : 5,
            "name" : "model.158",
            "rotation" : [
                0.7071068286895752,
                0,
                0,
                0.7071067094802856
            ],
            "scale" : [
                9,
                9,
                9
            ],
            "translation" : [
                -2.445147752761841,
                0,
                -16.23008155822754
            ]
        },
        {
            "mesh" : 6,
            "name" : "model.159",
            "rotation" : [
                0.7071068286895752,
                0,
                0,
                0.7071067094802856
            ],
            "scale" : [
                9,
                9,
                9
            ],
            "translation" : [
                -2.445147752761841,
                0,
                -16.23008155822754
            ]
        },
        {
            "mesh" : 7,
            "name" : "model.160",
            "rotation" : [
                0.7071068286895752,
                0,
                0,
                0.7071067094802856
            ],
            "scale" : [
                9,
                9,
                9
            ],
            "translation" : [
                -2.445147752761841,
                0,
                -16.23008155822754
            ]
        },
        {
            "mesh" : 8,
            "name" : "model.161",
            "rotation" : [
                0.7071068286895752,
                0,
                0,
                0.7071067094802856
            ],
            "scale" : [
                9,
                9,
                9
            ],
            "translation" : [
                -2.445147752761841,
                0,
                -16.23008155822754
            ]
        },
        {
            "mesh" : 9,
            "name" : "model.162",
            "rotation" : [
                0.7071068286895752,
                0,
                0,
                0.7071067094802856
            ],
            "scale" : [
                9,
                9,
                9
            ],
            "translation" : [
                -2.445147752761841,
                0,
                -16.23008155822754
            ]
        },
        {
            "mesh" : 10,
            "name" : "model.163",
            "rotation" : [
                0.7071068286895752,
                0,
                0,
                0.7071067094802856
            ],
            "scale" : [
                9,
                9,
                9
            ],
            "translation" : [
                -2.445147752761841,
                0,
                -16.23008155822754
            ]
        },
        {
            "mesh" : 11,
            "name" : "model.164",
            "rotation" : [
                0.7071068286895752,
                0,
                0,
                0.7071067094802856
            ],
            "scale" : [
                9,
                9,
                9
            ],
            "translation" : [
                -2.445147752761841,
                0,
                -16.23008155822754
            ]
        }
    ],
    "materials" : [
        {
            "doubleSided" : true,
            "name" : "mat15",
            "pbrMetallicRoughness" : {
                "baseColorFactor" : [
                    0.8100000023841858,
                    0.8500000238418579,
                    0.8600000143051147,
                    1
                ],
                "metallicFactor" : 0,
                "roughnessFactor" : 0.5
            }
        },
        {
            "doubleSided" : true,
            "name" : "mat4",
            "pbrMetallicRoughness" : {
                "baseColorFactor" : [
                    0,
                    0.7400000095367432,
                    0.8299999833106995,
                    1
                ],
                "metallicFactor" : 0,
                "roughnessFactor" : 0.5
            }
        },
        {
            "doubleSided" : true,
            "name" : "mat9",
            "pbrMetallicRoughness" : {
                "baseColorFactor" : [
                    0.550000011920929,
                    0.7599999904632568,
                    0.28999999165534973,
                    1
                ],
                "metallicFactor" : 0,
                "roughnessFactor" : 0.5
            }
        }
    ],
    "meshes" : [
        {
            "name" : "model.057",
            "primitives" : [
                {
                    "attributes" : {
                        "POSITION" : 0,
                        "NORMAL" : 1
                    },
                    "indices" : 2,
                    "material" : 0
                }
            ]
        },
        {
            "name" : "model.059",
            "primitives" : [
                {
                    "attributes" : {
                        "POSITION" : 3,
                        "NORMAL" : 4
                    },
                    "indices" : 5,
                    "material" : 0
                }
            ]
        },
        {
            "name" : "model.155",
            "primitives" : [
                {
                    "attributes" : {
                        "POSITION" : 6,
                        "NORMAL" : 7
                    },
                    "indices" : 8,
                    "material" : 1
                }
            ]
        },
        {
            "name" : "model.156",
            "primitives" : [
                {
                    "attributes" : {
                        "POSITION" : 9,
                        "NORMAL" : 10
                    },
                    "indices" : 11,
                    "material" : 2
                }
            ]
        },
        {
            "name" : "model.157",
            "primitives" : [
                {
                    "attributes" : {
                        "POSITION" : 12,
                        "NORMAL" : 13
                    },
                    "indices" : 14,
                    "material" : 2
                }
            ]
        },
        {
            "name" : "model.158",
            "primitives" : [
                {
                    "attributes" : {
                        "POSITION" : 15,
                        "NORMAL" : 16
                    },
                    "indices" : 17,
                    "material" : 2
                }
            ]
        },
        {
            "name" : "model.159",
            "primitives" : [
                {
                    "attributes" : {
                        "POSITION" : 18,
                        "NORMAL" : 19
                    },
                    "indices" : 20,
                    "material" : 2
                }
            ]
        },
        {
            "name" : "model.160",
            "primitives" : [
                {
                    "attributes" : {
                        "POSITION" : 21,
                        "NORMAL" : 22
                    },
                    "indices" : 23,
                    "material" : 2
                }
            ]
        },
        {
            "name" : "model.161",
            "primitives" : [
                {
                    "attributes" : {
                        "POSITION" : 24,
                        "NORMAL" : 25
                    },
                    "indices" : 26,
                    "material" : 2
                }
            ]
        },
        {
            "name" : "model.162",
            "primitives" : [
                {
                    "attributes" : {
                        "POSITION" : 27,
                        "NORMAL" : 28
                    },
                    "indices" : 29,
                    "material" : 2
                }
            ]
        },
        {
            "name" : "model.163",
            "primitives" : [
                {
                    "attributes" : {
                        "POSITION" : 30,
                        "NORMAL" : 31
                    },
                    "indices" : 32,
                    "material" : 2
                }
            ]
        },
        {
            "name" : "model.164",
            "primitives" : [
                {
                    "attributes" : {
                        "POSITION" : 33,
                        "NORMAL" : 34
                    },
                    "indices" : 35,
                    "material" : 2
                }
            ]
        }
    ],
    "accessors" : [
        {
            "bufferView" : 0,
            "componentType" : 5126,
            "count" : 322,
            "max" : [
                0.3380928039550781,
                1.867969036102295,
                0.16442430019378662
            ],
            "min" : [
                0.1977735012769699,
                1.7233200073242188,
                0.07008934020996094
            ],
            "type" : "VEC3"
        },
        {
            "bufferView" : 1,
            "componentType" : 5126,
            "count" : 322,
            "type" : "VEC3"
        },
        {
            "bufferView" : 2,
            "componentType" : 5123,
            "count" : 342,
            "type" : "SCALAR"
        },
        {
            "bufferView" : 3,
            "componentType" : 5126,
            "count" : 322,
            "max" : [
                0.37321141362190247,
                1.7743459939956665,
                0.4504444897174835
            ],
            "min" : [
                0.24172650277614594,
                1.6481339931488037,
                0.37171700596809387
            ],
            "type" : "VEC3"
        },
        {
            "bufferView" : 4,
            "componentType" : 5126,
            "count" : 322,
            "type" : "VEC3"
        },
        {
            "bufferView" : 5,
            "componentType" : 5123,
            "count" : 342,
            "type" : "SCALAR"
        },
        {
            "bufferView" : 6,
            "componentType" : 5126,
            "count" : 512,
            "max" : [
                0.44615408778190613,
                1.940953016281128,
                0.42950019240379333
            ],
            "min" : [
                0.10597120225429535,
                1.6012190580368042,
                0.08673263341188431
            ],
            "type" : "VEC3"
        },
        {
            "bufferView" : 7,
            "componentType" : 5126,
            "count" : 512,
            "type" : "VEC3"
        },
        {
            "bufferView" : 8,
            "componentType" : 5123,
            "count" : 564,
            "type" : "SCALAR"
        },
        {
            "bufferView" : 9,
            "componentType" : 5126,
            "count" : 266,
            "max" : [
                0.36289578676223755,
                1.6654729843139648,
                0.35884758830070496
            ],
            "min" : [
                0.1826675981283188,
                1.5877360105514526,
                0.13773320615291595
            ],
            "type" : "VEC3"
        },
        {
            "bufferView" : 10,
            "componentType" : 5126,
            "count" : 266,
            "type" : "VEC3"
        },
        {
            "bufferView" : 11,
            "componentType" : 5123,
            "count" : 276,
            "type" : "SCALAR"
        },
        {
            "bufferView" : 12,
            "componentType" : 5126,
            "count" : 246,
            "max" : [
                0.45532891154289246,
                1.7652649879455566,
                0.40548500418663025
            ],
            "min" : [
                0.3611193895339966,
                1.6414459943771362,
                0.22886480391025543
            ],
            "type" : "VEC3"
        },
        {
            "bufferView" : 13,
            "componentType" : 5126,
            "count" : 246,
            "type" : "VEC3"
        },
        {
            "bufferView" : 14,
            "componentType" : 5123,
            "count" : 252,
            "type" : "SCALAR"
        },
        {
            "bufferView" : 15,
            "componentType" : 5126,
            "count" : 284,
            "max" : [
                0.29585129022598267,
                1.8928719758987427,
                0.4140600860118866
            ],
            "min" : [
                0.22441519796848297,
                1.8212970495224,
                0.36513209342956543
            ],
            "type" : "VEC3"
        },
        {
            "bufferView" : 16,
            "componentType" : 5126,
            "count" : 284,
            "type" : "VEC3"
        },
        {
            "bufferView" : 17,
            "componentType" : 5123,
            "count" : 294,
            "type" : "SCALAR"
        },
        {
            "bufferView" : 18,
            "componentType" : 5126,
            "count" : 322,
            "max" : [
                0.2797287106513977,
                1.7345869541168213,
                0.17350460588932037
            ],
            "min" : [
                0.14768759906291962,
                1.6651090383529663,
                0.10987869650125504
            ],
            "type" : "VEC3"
        },
        {
            "bufferView" : 19,
            "componentType" : 5126,
            "count" : 322,
            "type" : "VEC3"
        },
        {
            "bufferView" : 20,
            "componentType" : 5123,
            "count" : 330,
            "type" : "SCALAR"
        },
        {
            "bufferView" : 21,
            "componentType" : 5126,
            "count" : 280,
            "max" : [
                0.45402270555496216,
                1.8909169435501099,
                0.27043038606643677
            ],
            "min" : [
                0.3306441009044647,
                1.7186729907989502,
                0.1079426035284996
            ],
            "type" : "VEC3"
        },
        {
            "bufferView" : 22,
            "componentType" : 5126,
            "count" : 280,
            "type" : "VEC3"
        },
        {
            "bufferView" : 23,
            "componentType" : 5123,
            "count" : 288,
            "type" : "SCALAR"
        },
        {
            "bufferView" : 24,
            "componentType" : 5126,
            "count" : 282,
            "max" : [
                0.23536670207977295,
                1.9228639602661133,
                0.32273951172828674
            ],
            "min" : [
                0.10332509875297546,
                1.6701600551605225,
                0.11451789736747742
            ],
            "type" : "VEC3"
        },
        {
            "bufferView" : 25,
            "componentType" : 5126,
            "count" : 282,
            "type" : "VEC3"
        },
        {
            "bufferView" : 26,
            "componentType" : 5123,
            "count" : 294,
            "type" : "SCALAR"
        },
        {
            "bufferView" : 27,
            "componentType" : 5126,
            "count" : 322,
            "max" : [
                0.17425820231437683,
                1.7698420286178589,
                0.2858797013759613
            ],
            "min" : [
                0.11305730044841766,
                1.6904610395431519,
                0.1428987979888916
            ],
            "type" : "VEC3"
        },
        {
            "bufferView" : 28,
            "componentType" : 5126,
            "count" : 322,
            "type" : "VEC3"
        },
        {
            "bufferView" : 29,
            "componentType" : 5123,
            "count" : 330,
            "type" : "SCALAR"
        },
        {
            "bufferView" : 30,
            "componentType" : 5126,
            "count" : 322,
            "max" : [
                0.2221211940050125,
                1.9206180572509766,
                0.3342556953430176
            ],
            "min" : [
                0.18123920261859894,
                1.8924260139465332,
                0.27497199177742004
            ],
            "type" : "VEC3"
        },
        {
            "bufferView" : 31,
            "componentType" : 5126,
            "count" : 322,
            "type" : "VEC3"
        },
        {
            "bufferView" : 32,
            "componentType" : 5123,
            "count" : 330,
            "type" : "SCALAR"
        },
        {
            "bufferView" : 33,
            "componentType" : 5126,
            "count" : 322,
            "max" : [
                0.20973369479179382,
                1.8597849607467651,
                0.37998878955841064
            ],
            "min" : [
                0.15301990509033203,
                1.8298369646072388,
                0.34184831380844116
            ],
            "type" : "VEC3"
        },
        {
            "bufferView" : 34,
            "componentType" : 5126,
            "count" : 322,
            "type" : "VEC3"
        },
        {
            "bufferView" : 35,
            "componentType" : 5123,
            "count" : 330,
            "type" : "SCALAR"
        }
    ],
    "bufferViews" : [
        {
            "buffer" : 0,
            "byteLength" : 3864,
            "byteOffset" : 0
        },
        {
            "buffer" : 0,
            "byteLength" : 3864,
            "byteOffset" : 3864
        },
        {
            "buffer" : 0,
            "byteLength" : 684,
            "byteOffset" : 7728
        },
        {
            "buffer" : 0,
            "byteLength" : 3864,
            "byteOffset" : 8412
        },
        {
            "buffer" : 0,
            "byteLength" : 3864,
            "byteOffset" : 12276
        },
        {
            "buffer" : 0,
            "byteLength" : 684,
            "byteOffset" : 16140
        },
        {
            "buffer" : 0,
            "byteLength" : 6144,
            "byteOffset" : 16824
        },
        {
            "buffer" : 0,
            "byteLength" : 6144,
            "byteOffset" : 22968
        },
        {
            "buffer" : 0,
            "byteLength" : 1128,
            "byteOffset" : 29112
        },
        {
            "buffer" : 0,
            "byteLength" : 3192,
            "byteOffset" : 30240
        },
        {
            "buffer" : 0,
            "byteLength" : 3192,
            "byteOffset" : 33432
        },
        {
            "buffer" : 0,
            "byteLength" : 552,
            "byteOffset" : 36624
        },
        {
            "buffer" : 0,
            "byteLength" : 2952,
            "byteOffset" : 37176
        },
        {
            "buffer" : 0,
            "byteLength" : 2952,
            "byteOffset" : 40128
        },
        {
            "buffer" : 0,
            "byteLength" : 504,
            "byteOffset" : 43080
        },
        {
            "buffer" : 0,
            "byteLength" : 3408,
            "byteOffset" : 43584
        },
        {
            "buffer" : 0,
            "byteLength" : 3408,
            "byteOffset" : 46992
        },
        {
            "buffer" : 0,
            "byteLength" : 588,
            "byteOffset" : 50400
        },
        {
            "buffer" : 0,
            "byteLength" : 3864,
            "byteOffset" : 50988
        },
        {
            "buffer" : 0,
            "byteLength" : 3864,
            "byteOffset" : 54852
        },
        {
            "buffer" : 0,
            "byteLength" : 660,
            "byteOffset" : 58716
        },
        {
            "buffer" : 0,
            "byteLength" : 3360,
            "byteOffset" : 59376
        },
        {
            "buffer" : 0,
            "byteLength" : 3360,
            "byteOffset" : 62736
        },
        {
            "buffer" : 0,
            "byteLength" : 576,
            "byteOffset" : 66096
        },
        {
            "buffer" : 0,
            "byteLength" : 3384,
            "byteOffset" : 66672
        },
        {
            "buffer" : 0,
            "byteLength" : 3384,
            "byteOffset" : 70056
        },
        {
            "buffer" : 0,
            "byteLength" : 588,
            "byteOffset" : 73440
        },
        {
            "buffer" : 0,
            "byteLength" : 3864,
            "byteOffset" : 74028
        },
        {
            "buffer" : 0,
            "byteLength" : 3864,
            "byteOffset" : 77892
        },
        {
            "buffer" : 0,
            "byteLength" : 660,
            "byteOffset" : 81756
        },
        {
            "buffer" : 0,
            "byteLength" : 3864,
            "byteOffset" : 82416
        },
        {
            "buffer" : 0,
            "byteLength" : 3864,
            "byteOffset" : 86280
        },
        {
            "buffer" : 0,
            "byteLength" : 660,
            "byteOffset" : 90144
        },
        {
            "buffer" : 0,
            "byteLength" : 3864,
            "byteOffset" : 90804
        },
        {
            "buffer" : 0,
            "byteLength" : 3864,
            "byteOffset" : 94668
        },
        {
            "buffer" : 0,
            "byteLength" : 660,
            "byteOffset" : 98532
        }
    ],
    "buffers" : [
        {
            "byteLength" : 99192,
            "uri" : "data:application/octet-stream;base64,"
        }
    ]
}
