{
    "asset" : {
        "generator" : "Khronos glTF Blender I/O v1.7.33",
        "version" : "2.0"
    },
    "scene" : 0,
    "scenes" : [
        {
            "name" : "Scene",
            "nodes" : [
                0,
                1
            ]
        }
    ],
    "nodes" : [
        {
            "mesh" : 0,
            "name" : "model.049",
            "rotation" : [
                0.7071068286895752,
                0,
                0,
                0.7071067094802856
            ],
            "scale" : [
                9,
                9,
                9
            ],
            "translation" : [
                -14.908246040344238,
                0,
                8.84661865234375
            ]
        },
        {
            "mesh" : 1,
            "name" : "model.169",
            "rotation" : [
                0.7071068286895752,
                0,
                0,
                0.7071067094802856
            ],
            "scale" : [
                9,
                9,
                9
            ],
            "translation" : [
                -14.908246040344238,
                0,
                8.84661865234375
            ]
        }
    ],
    "materials" : [
        {
            "doubleSided" : true,
            "name" : "mat18",
            "pbrMetallicRoughness" : {
                "baseColorFactor" : [
                    1,
                    0.800000011920929,
                    0.5299999713897705,
                    1
                ],
                "metallicFactor" : 0,
                "roughnessFactor" : 0.5
            }
        },
        {
            "doubleSided" : true,
            "name" : "mat15",
            "pbrMetallicRoughness" : {
                "baseColorFactor" : [
                    0.8100000023841858,
                    0.8500000238418579,
                    0.8600000143051147,
                    1
                ],
                "metallicFactor" : 0,
                "roughnessFactor" : 0.5
            }
        },
        {
            "doubleSided" : true,
            "name" : "mat21",
            "pbrMetallicRoughness" : {
                "baseColorFactor" : [
                    1,
                    1,
                    1,
                    1
                ],
                "metallicFactor" : 0,
                "roughnessFactor" : 0.5
            }
        },
        {
            "doubleSided" : true,
            "name" : "mat19",
            "pbrMetallicRoughness" : {
                "baseColorFactor" : [
                    0.8700000047683716,
                    0.6000000238418579,
                    0.27000001072883606,
                    1
                ],
                "metallicFactor" : 0,
                "roughnessFactor" : 0.5
            }
        },
        {
            "doubleSided" : true,
            "name" : "Material.001",
            "pbrMetallicRoughness" : {
                "baseColorFactor" : [
                    1,
                    0.6000000238418579,
                    0,
                    1
                ],
                "metallicFactor" : 0,
                "roughnessFactor" : 0.5
            }
        },
        {
            "doubleSided" : true,
            "name" : "mat14",
            "pbrMetallicRoughness" : {
                "baseColorFactor" : [
                    1,
                    0.3400000035762787,
                    0.12999999523162842,
                    1
                ],
                "metallicFactor" : 0,
                "roughnessFactor" : 0.5
            }
        }
    ],
    "meshes" : [
        {
            "name" : "model.049",
            "primitives" : [
                {
                    "attributes" : {
                        "POSITION" : 0,
                        "NORMAL" : 1
                    },
                    "indices" : 2,
                    "material" : 0
                },
                {
                    "attributes" : {
                        "POSITION" : 3,
                        "NORMAL" : 4
                    },
                    "indices" : 5,
                    "material" : 1
                },
                {
                    "attributes" : {
                        "POSITION" : 6,
                        "NORMAL" : 7
                    },
                    "indices" : 8,
                    "material" : 2
                },
                {
                    "attributes" : {
                        "POSITION" : 9,
                        "NORMAL" : 10
                    },
                    "indices" : 11,
                    "material" : 3
                },
                {
                    "attributes" : {
                        "POSITION" : 12,
                        "NORMAL" : 13
                    },
                    "indices" : 14,
                    "material" : 4
                }
            ]
        },
        {
            "name" : "model.169",
            "primitives" : [
                {
                    "attributes" : {
                        "POSITION" : 15,
                        "NORMAL" : 16
                    },
                    "indices" : 17,
                    "material" : 5
                }
            ]
        }
    ],
    "accessors" : [
        {
            "bufferView" : 0,
            "componentType" : 5126,
            "count" : 3,
            "max" : [
                2.130776882171631,
                -1.154539942741394,
                -0.241291806101799
            ],
            "min" : [
                2.1292929649353027,
                -1.1903200149536133,
                -0.24396049976348877
            ],
            "type" : "VEC3"
        },
        {
            "bufferView" : 1,
            "componentType" : 5126,
            "count" : 3,
            "type" : "VEC3"
        },
        {
            "bufferView" : 2,
            "componentType" : 5123,
            "count" : 3,
            "type" : "SCALAR"
        },
        {
            "bufferView" : 3,
            "componentType" : 5126,
            "count" : 206,
            "max" : [
                2.1520919799804688,
                -0.5024306774139404,
                0.5885449051856995
            ],
            "min" : [
                1.1244750022888184,
                -1.5431580543518066,
                -0.5654491186141968
            ],
            "type" : "VEC3"
        },
        {
            "bufferView" : 4,
            "componentType" : 5126,
            "count" : 206,
            "type" : "VEC3"
        },
        {
            "bufferView" : 5,
            "componentType" : 5123,
            "count" : 264,
            "type" : "SCALAR"
        },
        {
            "bufferView" : 6,
            "componentType" : 5126,
            "count" : 15,
            "max" : [
                2.1094770431518555,
                -0.5903975963592529,
                0.5364550948143005
            ],
            "min" : [
                1.1244750022888184,
                -1.395427942276001,
                0.15973110496997833
            ],
            "type" : "VEC3"
        },
        {
            "bufferView" : 7,
            "componentType" : 5126,
            "count" : 15,
            "type" : "VEC3"
        },
        {
            "bufferView" : 8,
            "componentType" : 5123,
            "count" : 15,
            "type" : "SCALAR"
        },
        {
            "bufferView" : 9,
            "componentType" : 5126,
            "count" : 126,
            "max" : [
                2.0311570167541504,
                -0.5700464248657227,
                0.5885449051856995
            ],
            "min" : [
                1.2199009656906128,
                -1.5332269668579102,
                -0.5654491186141968
            ],
            "type" : "VEC3"
        },
        {
            "bufferView" : 10,
            "componentType" : 5126,
            "count" : 126,
            "type" : "VEC3"
        },
        {
            "bufferView" : 11,
            "componentType" : 5123,
            "count" : 150,
            "type" : "SCALAR"
        },
        {
            "bufferView" : 12,
            "componentType" : 5126,
            "count" : 370,
            "max" : [
                2.2527170181274414,
                -0.47624069452285767,
                0.4372884929180145
            ],
            "min" : [
                1.0977239608764648,
                -1.6364339590072632,
                -0.48891058564186096
            ],
            "type" : "VEC3"
        },
        {
            "bufferView" : 13,
            "componentType" : 5126,
            "count" : 370,
            "type" : "VEC3"
        },
        {
            "bufferView" : 14,
            "componentType" : 5123,
            "count" : 492,
            "type" : "SCALAR"
        },
        {
            "bufferView" : 15,
            "componentType" : 5126,
            "count" : 119,
            "max" : [
                1.7852089405059814,
                -0.44878458976745605,
                0.09498906135559082
            ],
            "min" : [
                1.4557139873504639,
                -0.6949477195739746,
                -0.12151060253381729
            ],
            "type" : "VEC3"
        },
        {
            "bufferView" : 16,
            "componentType" : 5126,
            "count" : 119,
            "type" : "VEC3"
        },
        {
            "bufferView" : 17,
            "componentType" : 5123,
            "count" : 129,
            "type" : "SCALAR"
        }
    ],
    "bufferViews" : [
        {
            "buffer" : 0,
            "byteLength" : 36,
            "byteOffset" : 0
        },
        {
            "buffer" : 0,
            "byteLength" : 36,
            "byteOffset" : 36
        },
        {
            "buffer" : 0,
            "byteLength" : 6,
            "byteOffset" : 72
        },
        {
            "buffer" : 0,
            "byteLength" : 2472,
            "byteOffset" : 80
        },
        {
            "buffer" : 0,
            "byteLength" : 2472,
            "byteOffset" : 2552
        },
        {
            "buffer" : 0,
            "byteLength" : 528,
            "byteOffset" : 5024
        },
        {
            "buffer" : 0,
            "byteLength" : 180,
            "byteOffset" : 5552
        },
        {
            "buffer" : 0,
            "byteLength" : 180,
            "byteOffset" : 5732
        },
        {
            "buffer" : 0,
            "byteLength" : 30,
            "byteOffset" : 5912
        },
        {
            "buffer" : 0,
            "byteLength" : 1512,
            "byteOffset" : 5944
        },
        {
            "buffer" : 0,
            "byteLength" : 1512,
            "byteOffset" : 7456
        },
        {
            "buffer" : 0,
            "byteLength" : 300,
            "byteOffset" : 8968
        },
        {
            "buffer" : 0,
            "byteLength" : 4440,
            "byteOffset" : 9268
        },
        {
            "buffer" : 0,
            "byteLength" : 4440,
            "byteOffset" : 13708
        },
        {
            "buffer" : 0,
            "byteLength" : 984,
            "byteOffset" : 18148
        },
        {
            "buffer" : 0,
            "byteLength" : 1428,
            "byteOffset" : 19132
        },
        {
            "buffer" : 0,
            "byteLength" : 1428,
            "byteOffset" : 20560
        },
        {
            "buffer" : 0,
            "byteLength" : 258,
            "byteOffset" : 21988
        }
    ],
    "buffers" : [
        {
            "byteLength" : 22248,
            "uri" : "data:application/octet-stream;base64,"
        }
    ]
}
