{
    "asset" : {
        "generator" : "Khronos glTF Blender I/O v1.7.33",
        "version" : "2.0"
    },
    "scene" : 0,
    "scenes" : [
        {
            "name" : "Scene",
            "nodes" : [
                0,
                1,
                2,
                3,
                4,
                5,
                6,
                7,
                8
            ]
        }
    ],
    "nodes" : [
        {
            "mesh" : 0,
            "name" : "model.165",
            "rotation" : [
                0.7071068286895752,
                0,
                0,
                0.7071067094802856
            ],
            "scale" : [
                9,
                9,
                9
            ],
            "translation" : [
                -1.6500771045684814,
                0,
                -5.427857875823975
            ]
        },
        {
            "mesh" : 1,
            "name" : "model.166",
            "rotation" : [
                0.7071068286895752,
                0,
                0,
                0.7071067094802856
            ],
            "scale" : [
                9,
                9,
                9
            ],
            "translation" : [
                -1.6500771045684814,
                0,
                -5.427857875823975
            ]
        },
        {
            "mesh" : 2,
            "name" : "model.167",
            "rotation" : [
                0.7071068286895752,
                0,
                0,
                0.7071067094802856
            ],
            "scale" : [
                9,
                9,
                9
            ],
            "translation" : [
                -1.6500771045684814,
                0,
                -5.427857875823975
            ]
        },
        {
            "mesh" : 3,
            "name" : "model.168",
            "rotation" : [
                0.7071068286895752,
                0,
                0,
                0.7071067094802856
            ],
            "scale" : [
                9,
                9,
                9
            ],
            "translation" : [
                -1.6500771045684814,
                0,
                -5.427857875823975
            ]
        },
        {
            "mesh" : 4,
            "name" : "model.170",
            "rotation" : [
                0.7071068286895752,
                0,
                0,
                0.7071067094802856
            ],
            "scale" : [
                9,
                9,
                9
            ],
            "translation" : [
                -1.6500771045684814,
                0,
                -5.427857875823975
            ]
        },
        {
            "mesh" : 5,
            "name" : "model.171",
            "rotation" : [
                0.7071068286895752,
                0,
                0,
                0.7071067094802856
            ],
            "scale" : [
                9,
                9,
                9
            ],
            "translation" : [
                -1.6500771045684814,
                0,
                -5.427857875823975
            ]
        },
        {
            "mesh" : 6,
            "name" : "model.172",
            "rotation" : [
                0.7071068286895752,
                0,
                0,
                0.7071067094802856
            ],
            "scale" : [
                9,
                9,
                9
            ],
            "translation" : [
                -1.6500771045684814,
                0,
                -5.427857875823975
            ]
        },
        {
            "mesh" : 7,
            "name" : "model.173",
            "rotation" : [
                0.7071068286895752,
                0,
                0,
                0.7071067094802856
            ],
            "scale" : [
                9,
                9,
                9
            ],
            "translation" : [
                -1.6500771045684814,
                0,
                -5.427857875823975
            ]
        },
        {
            "mesh" : 8,
            "name" : "model.174",
            "rotation" : [
                0.7071068286895752,
                0,
                0,
                0.7071067094802856
            ],
            "scale" : [
                9,
                9,
                9
            ],
            "translation" : [
                -1.6500771045684814,
                0,
                -5.427857875823975
            ]
        }
    ],
    "materials" : [
        {
            "doubleSided" : true,
            "name" : "mat14",
            "pbrMetallicRoughness" : {
                "baseColorFactor" : [
                    1,
                    0.3400000035762787,
                    0.12999999523162842,
                    1
                ],
                "metallicFactor" : 0,
                "roughnessFactor" : 0.5
            }
        },
        {
            "doubleSided" : true,
            "name" : "mat8",
            "pbrMetallicRoughness" : {
                "baseColorFactor" : [
                    0.9599999785423279,
                    0.25999999046325684,
                    0.20999999344348907,
                    1
                ],
                "metallicFactor" : 0,
                "roughnessFactor" : 0.5
            }
        }
    ],
    "meshes" : [
        {
            "name" : "model.165",
            "primitives" : [
                {
                    "attributes" : {
                        "POSITION" : 0,
                        "NORMAL" : 1
                    },
                    "indices" : 2,
                    "material" : 0
                }
            ]
        },
        {
            "name" : "model.166",
            "primitives" : [
                {
                    "attributes" : {
                        "POSITION" : 3,
                        "NORMAL" : 4
                    },
                    "indices" : 5,
                    "material" : 0
                }
            ]
        },
        {
            "name" : "model.167",
            "primitives" : [
                {
                    "attributes" : {
                        "POSITION" : 6,
                        "NORMAL" : 7
                    },
                    "indices" : 8,
                    "material" : 0
                }
            ]
        },
        {
            "name" : "model.168",
            "primitives" : [
                {
                    "attributes" : {
                        "POSITION" : 9,
                        "NORMAL" : 10
                    },
                    "indices" : 11,
                    "material" : 0
                }
            ]
        },
        {
            "name" : "model.170",
            "primitives" : [
                {
                    "attributes" : {
                        "POSITION" : 12,
                        "NORMAL" : 13
                    },
                    "indices" : 14,
                    "material" : 1
                }
            ]
        },
        {
            "name" : "model.171",
            "primitives" : [
                {
                    "attributes" : {
                        "POSITION" : 15,
                        "NORMAL" : 16
                    },
                    "indices" : 17,
                    "material" : 1
                }
            ]
        },
        {
            "name" : "model.172",
            "primitives" : [
                {
                    "attributes" : {
                        "POSITION" : 18,
                        "NORMAL" : 19
                    },
                    "indices" : 20,
                    "material" : 1
                }
            ]
        },
        {
            "name" : "model.173",
            "primitives" : [
                {
                    "attributes" : {
                        "POSITION" : 21,
                        "NORMAL" : 22
                    },
                    "indices" : 23,
                    "material" : 1
                }
            ]
        },
        {
            "name" : "model.174",
            "primitives" : [
                {
                    "attributes" : {
                        "POSITION" : 24,
                        "NORMAL" : 25
                    },
                    "indices" : 26,
                    "material" : 1
                }
            ]
        }
    ],
    "accessors" : [
        {
            "bufferView" : 0,
            "componentType" : 5126,
            "count" : 312,
            "max" : [
                0.271771103143692,
                0.7421579957008362,
                0.25402700901031494
            ],
            "min" : [
                0.12819020450115204,
                0.6614254713058472,
                0.05798459053039551
            ],
            "type" : "VEC3"
        },
        {
            "bufferView" : 1,
            "componentType" : 5126,
            "count" : 312,
            "type" : "VEC3"
        },
        {
            "bufferView" : 2,
            "componentType" : 5123,
            "count" : 324,
            "type" : "SCALAR"
        },
        {
            "bufferView" : 3,
            "componentType" : 5126,
            "count" : 314,
            "max" : [
                0.14074580371379852,
                0.6862108707427979,
                0.26454511284828186
            ],
            "min" : [
                0.05921715125441551,
                0.5431410074234009,
                0.06753647327423096
            ],
            "type" : "VEC3"
        },
        {
            "bufferView" : 4,
            "componentType" : 5126,
            "count" : 314,
            "type" : "VEC3"
        },
        {
            "bufferView" : 5,
            "componentType" : 5123,
            "count" : 324,
            "type" : "SCALAR"
        },
        {
            "bufferView" : 6,
            "componentType" : 5126,
            "count" : 518,
            "max" : [
                0.3285767138004303,
                0.7350391149520874,
                0.27461400628089905
            ],
            "min" : [
                0.06456071138381958,
                0.4639194905757904,
                0.008107662200927734
            ],
            "type" : "VEC3"
        },
        {
            "bufferView" : 7,
            "componentType" : 5126,
            "count" : 518,
            "type" : "VEC3"
        },
        {
            "bufferView" : 8,
            "componentType" : 5123,
            "count" : 564,
            "type" : "SCALAR"
        },
        {
            "bufferView" : 9,
            "componentType" : 5126,
            "count" : 312,
            "max" : [
                0.2948046028614044,
                0.5946943163871765,
                0.15362060070037842
            ],
            "min" : [
                0.10215149819850922,
                0.4718173146247864,
                0.03077852912247181
            ],
            "type" : "VEC3"
        },
        {
            "bufferView" : 10,
            "componentType" : 5126,
            "count" : 312,
            "type" : "VEC3"
        },
        {
            "bufferView" : 11,
            "componentType" : 5123,
            "count" : 324,
            "type" : "SCALAR"
        },
        {
            "bufferView" : 12,
            "componentType" : 5126,
            "count" : 312,
            "max" : [
                0.32824280858039856,
                0.721164882183075,
                0.23218460381031036
            ],
            "min" : [
                0.2277873009443283,
                0.5942831039428711,
                0.03265463933348656
            ],
            "type" : "VEC3"
        },
        {
            "bufferView" : 13,
            "componentType" : 5126,
            "count" : 312,
            "type" : "VEC3"
        },
        {
            "bufferView" : 14,
            "componentType" : 5123,
            "count" : 324,
            "type" : "SCALAR"
        },
        {
            "bufferView" : 15,
            "componentType" : 5126,
            "count" : 312,
            "max" : [
                0.2645232081413269,
                0.6766061782836914,
                0.09327805042266846
            ],
            "min" : [
                0.06835991144180298,
                0.5320094227790833,
                0.004709839820861816
            ],
            "type" : "VEC3"
        },
        {
            "bufferView" : 16,
            "componentType" : 5126,
            "count" : 312,
            "type" : "VEC3"
        },
        {
            "bufferView" : 17,
            "componentType" : 5123,
            "count" : 324,
            "type" : "SCALAR"
        },
        {
            "bufferView" : 18,
            "componentType" : 5126,
            "count" : 312,
            "max" : [
                0.32296448945999146,
                0.6636539101600647,
                0.2715716063976288
            ],
            "min" : [
                0.14033259451389313,
                0.527096688747406,
                0.1706397980451584
            ],
            "type" : "VEC3"
        },
        {
            "bufferView" : 19,
            "componentType" : 5126,
            "count" : 312,
            "type" : "VEC3"
        },
        {
            "bufferView" : 20,
            "componentType" : 5123,
            "count" : 324,
            "type" : "SCALAR"
        },
        {
            "bufferView" : 21,
            "componentType" : 5126,
            "count" : 312,
            "max" : [
                0.3161385953426361,
                0.6310107111930847,
                0.21306060254573822
            ],
            "min" : [
                0.2175918072462082,
                0.495565801858902,
                0.019406799226999283
            ],
            "type" : "VEC3"
        },
        {
            "bufferView" : 22,
            "componentType" : 5126,
            "count" : 312,
            "type" : "VEC3"
        },
        {
            "bufferView" : 23,
            "componentType" : 5123,
            "count" : 324,
            "type" : "SCALAR"
        },
        {
            "bufferView" : 24,
            "componentType" : 5126,
            "count" : 316,
            "max" : [
                0.3039188086986542,
                0.5527318716049194,
                0.24306930601596832
            ],
            "min" : [
                0.10703279823064804,
                0.46281081438064575,
                0.10456229746341705
            ],
            "type" : "VEC3"
        },
        {
            "bufferView" : 25,
            "componentType" : 5126,
            "count" : 316,
            "type" : "VEC3"
        },
        {
            "bufferView" : 26,
            "componentType" : 5123,
            "count" : 324,
            "type" : "SCALAR"
        }
    ],
    "bufferViews" : [
        {
            "buffer" : 0,
            "byteLength" : 3744,
            "byteOffset" : 0
        },
        {
            "buffer" : 0,
            "byteLength" : 3744,
            "byteOffset" : 3744
        },
        {
            "buffer" : 0,
            "byteLength" : 648,
            "byteOffset" : 7488
        },
        {
            "buffer" : 0,
            "byteLength" : 3768,
            "byteOffset" : 8136
        },
        {
            "buffer" : 0,
            "byteLength" : 3768,
            "byteOffset" : 11904
        },
        {
            "buffer" : 0,
            "byteLength" : 648,
            "byteOffset" : 15672
        },
        {
            "buffer" : 0,
            "byteLength" : 6216,
            "byteOffset" : 16320
        },
        {
            "buffer" : 0,
            "byteLength" : 6216,
            "byteOffset" : 22536
        },
        {
            "buffer" : 0,
            "byteLength" : 1128,
            "byteOffset" : 28752
        },
        {
            "buffer" : 0,
            "byteLength" : 3744,
            "byteOffset" : 29880
        },
        {
            "buffer" : 0,
            "byteLength" : 3744,
            "byteOffset" : 33624
        },
        {
            "buffer" : 0,
            "byteLength" : 648,
            "byteOffset" : 37368
        },
        {
            "buffer" : 0,
            "byteLength" : 3744,
            "byteOffset" : 38016
        },
        {
            "buffer" : 0,
            "byteLength" : 3744,
            "byteOffset" : 41760
        },
        {
            "buffer" : 0,
            "byteLength" : 648,
            "byteOffset" : 45504
        },
        {
            "buffer" : 0,
            "byteLength" : 3744,
            "byteOffset" : 46152
        },
        {
            "buffer" : 0,
            "byteLength" : 3744,
            "byteOffset" : 49896
        },
        {
            "buffer" : 0,
            "byteLength" : 648,
            "byteOffset" : 53640
        },
        {
            "buffer" : 0,
            "byteLength" : 3744,
            "byteOffset" : 54288
        },
        {
            "buffer" : 0,
            "byteLength" : 3744,
            "byteOffset" : 58032
        },
        {
            "buffer" : 0,
            "byteLength" : 648,
            "byteOffset" : 61776
        },
        {
            "buffer" : 0,
            "byteLength" : 3744,
            "byteOffset" : 62424
        },
        {
            "buffer" : 0,
            "byteLength" : 3744,
            "byteOffset" : 66168
        },
        {
            "buffer" : 0,
            "byteLength" : 648,
            "byteOffset" : 69912
        },
        {
            "buffer" : 0,
            "byteLength" : 3792,
            "byteOffset" : 70560
        },
        {
            "buffer" : 0,
            "byteLength" : 3792,
            "byteOffset" : 74352
        },
        {
            "buffer" : 0,
            "byteLength" : 648,
            "byteOffset" : 78144
        }
    ],
    "buffers" : [
        {
            "byteLength" : 78792,
            "uri" : "data:application/octet-stream;base64,"
        }
    ]
}
