{
    "asset" : {
        "generator" : "Khronos glTF Blender I/O v1.7.33",
        "version" : "2.0"
    },
    "scene" : 0,
    "scenes" : [
        {
            "name" : "Scene",
            "nodes" : [
                0,
                1,
                2,
                3,
                4,
                5,
                6
            ]
        }
    ],
    "nodes" : [
        {
            "mesh" : 0,
            "name" : "model.226",
            "rotation" : [
                0.7071068286895752,
                0,
                0,
                0.7071067094802856
            ],
            "scale" : [
                9,
                9,
                9
            ],
            "translation" : [
                -3.277101993560791,
                0,
                40.57285690307617
            ]
        },
        {
            "mesh" : 1,
            "name" : "model.227",
            "rotation" : [
                0.7071068286895752,
                0,
                0,
                0.7071067094802856
            ],
            "scale" : [
                9,
                9,
                9
            ],
            "translation" : [
                -3.277101993560791,
                0,
                40.57285690307617
            ]
        },
        {
            "mesh" : 2,
            "name" : "model.228",
            "rotation" : [
                0.7071068286895752,
                0,
                0,
                0.7071067094802856
            ],
            "scale" : [
                9,
                9,
                9
            ],
            "translation" : [
                -3.277101993560791,
                0,
                40.57285690307617
            ]
        },
        {
            "mesh" : 3,
            "name" : "model.229",
            "rotation" : [
                0.7071068286895752,
                0,
                0,
                0.7071067094802856
            ],
            "scale" : [
                9,
                9,
                9
            ],
            "translation" : [
                -3.277101993560791,
                0,
                40.57285690307617
            ]
        },
        {
            "mesh" : 4,
            "name" : "model.230",
            "rotation" : [
                0.7071068286895752,
                0,
                0,
                0.7071067094802856
            ],
            "scale" : [
                9,
                9,
                9
            ],
            "translation" : [
                -3.277101993560791,
                0,
                40.57285690307617
            ]
        },
        {
            "mesh" : 5,
            "name" : "model.231",
            "rotation" : [
                0.7071068286895752,
                0,
                0,
                0.7071067094802856
            ],
            "scale" : [
                9,
                9,
                9
            ],
            "translation" : [
                -3.277101993560791,
                0,
                40.57285690307617
            ]
        },
        {
            "mesh" : 6,
            "name" : "model.225",
            "rotation" : [
                0.7071068286895752,
                0,
                0,
                0.7071067094802856
            ],
            "scale" : [
                9,
                9,
                9
            ],
            "translation" : [
                -3.277101993560791,
                0,
                40.57285690307617
            ]
        }
    ],
    "materials" : [
        {
            "doubleSided" : true,
            "name" : "mat22",
            "pbrMetallicRoughness" : {
                "baseColorFactor" : [
                    0.6200000047683716,
                    0.6200000047683716,
                    0.6200000047683716,
                    1
                ],
                "metallicFactor" : 0,
                "roughnessFactor" : 0.5
            }
        }
    ],
    "meshes" : [
        {
            "name" : "model.226",
            "primitives" : [
                {
                    "attributes" : {
                        "POSITION" : 0,
                        "NORMAL" : 1
                    },
                    "indices" : 2,
                    "material" : 0
                }
            ]
        },
        {
            "name" : "model.227",
            "primitives" : [
                {
                    "attributes" : {
                        "POSITION" : 3,
                        "NORMAL" : 4
                    },
                    "indices" : 5,
                    "material" : 0
                }
            ]
        },
        {
            "name" : "model.228",
            "primitives" : [
                {
                    "attributes" : {
                        "POSITION" : 6,
                        "NORMAL" : 7
                    },
                    "indices" : 8,
                    "material" : 0
                }
            ]
        },
        {
            "name" : "model.229",
            "primitives" : [
                {
                    "attributes" : {
                        "POSITION" : 9,
                        "NORMAL" : 10
                    },
                    "indices" : 11,
                    "material" : 0
                }
            ]
        },
        {
            "name" : "model.230",
            "primitives" : [
                {
                    "attributes" : {
                        "POSITION" : 12,
                        "NORMAL" : 13
                    },
                    "indices" : 14,
                    "material" : 0
                }
            ]
        },
        {
            "name" : "model.231",
            "primitives" : [
                {
                    "attributes" : {
                        "POSITION" : 15,
                        "NORMAL" : 16
                    },
                    "indices" : 17,
                    "material" : 0
                }
            ]
        },
        {
            "name" : "model.225",
            "primitives" : [
                {
                    "attributes" : {
                        "POSITION" : 18,
                        "NORMAL" : 19
                    },
                    "indices" : 20,
                    "material" : 0
                }
            ]
        }
    ],
    "accessors" : [
        {
            "bufferView" : 0,
            "componentType" : 5126,
            "count" : 512,
            "max" : [
                0.4127042889595032,
                -4.446211814880371,
                -0.37153148651123047
            ],
            "min" : [
                0.315286785364151,
                -4.542846202850342,
                -0.46941450238227844
            ],
            "type" : "VEC3"
        },
        {
            "bufferView" : 1,
            "componentType" : 5126,
            "count" : 512,
            "type" : "VEC3"
        },
        {
            "bufferView" : 2,
            "componentType" : 5123,
            "count" : 564,
            "type" : "SCALAR"
        },
        {
            "bufferView" : 3,
            "componentType" : 5126,
            "count" : 278,
            "max" : [
                0.4203501045703888,
                -4.475730895996094,
                -0.39515969157218933
            ],
            "min" : [
                0.39087429642677307,
                -4.521020889282227,
                -0.45889291167259216
            ],
            "type" : "VEC3"
        },
        {
            "bufferView" : 4,
            "componentType" : 5126,
            "count" : 278,
            "type" : "VEC3"
        },
        {
            "bufferView" : 5,
            "componentType" : 5123,
            "count" : 288,
            "type" : "SCALAR"
        },
        {
            "bufferView" : 6,
            "componentType" : 5126,
            "count" : 232,
            "max" : [
                0.3583877980709076,
                -4.509480953216553,
                -0.43951359391212463
            ],
            "min" : [
                0.33464109897613525,
                -4.538249969482422,
                -0.4609076976776123
            ],
            "type" : "VEC3"
        },
        {
            "bufferView" : 7,
            "componentType" : 5126,
            "count" : 232,
            "type" : "VEC3"
        },
        {
            "bufferView" : 8,
            "componentType" : 5123,
            "count" : 240,
            "type" : "SCALAR"
        },
        {
            "bufferView" : 9,
            "componentType" : 5126,
            "count" : 232,
            "max" : [
                0.3696078956127167,
                -4.496914863586426,
                -0.37795290350914
            ],
            "min" : [
                0.31574389338493347,
                -4.538002014160156,
                -0.42634129524230957
            ],
            "type" : "VEC3"
        },
        {
            "bufferView" : 10,
            "componentType" : 5126,
            "count" : 232,
            "type" : "VEC3"
        },
        {
            "bufferView" : 11,
            "componentType" : 5123,
            "count" : 240,
            "type" : "SCALAR"
        },
        {
            "bufferView" : 12,
            "componentType" : 5126,
            "count" : 232,
            "max" : [
                0.395088791847229,
                -4.488072872161865,
                -0.37231481075286865
            ],
            "min" : [
                0.3774782121181488,
                -4.511750221252441,
                -0.3881506025791168
            ],
            "type" : "VEC3"
        },
        {
            "bufferView" : 13,
            "componentType" : 5126,
            "count" : 232,
            "type" : "VEC3"
        },
        {
            "bufferView" : 14,
            "componentType" : 5123,
            "count" : 240,
            "type" : "SCALAR"
        },
        {
            "bufferView" : 15,
            "componentType" : 5126,
            "count" : 232,
            "max" : [
                0.38249439001083374,
                -4.452235221862793,
                -0.3892608880996704
            ],
            "min" : [
                0.34749189019203186,
                -4.464047908782959,
                -0.4099510908126831
            ],
            "type" : "VEC3"
        },
        {
            "bufferView" : 16,
            "componentType" : 5126,
            "count" : 232,
            "type" : "VEC3"
        },
        {
            "bufferView" : 17,
            "componentType" : 5123,
            "count" : 240,
            "type" : "SCALAR"
        },
        {
            "bufferView" : 18,
            "componentType" : 5126,
            "count" : 326,
            "max" : [
                0.37918969988822937,
                -4.45084810256958,
                -0.4225826859474182
            ],
            "min" : [
                0.31987670063972473,
                -4.49088716506958,
                -0.462911993265152
            ],
            "type" : "VEC3"
        },
        {
            "bufferView" : 19,
            "componentType" : 5126,
            "count" : 326,
            "type" : "VEC3"
        },
        {
            "bufferView" : 20,
            "componentType" : 5123,
            "count" : 342,
            "type" : "SCALAR"
        }
    ],
    "bufferViews" : [
        {
            "buffer" : 0,
            "byteLength" : 6144,
            "byteOffset" : 0
        },
        {
            "buffer" : 0,
            "byteLength" : 6144,
            "byteOffset" : 6144
        },
        {
            "buffer" : 0,
            "byteLength" : 1128,
            "byteOffset" : 12288
        },
        {
            "buffer" : 0,
            "byteLength" : 3336,
            "byteOffset" : 13416
        },
        {
            "buffer" : 0,
            "byteLength" : 3336,
            "byteOffset" : 16752
        },
        {
            "buffer" : 0,
            "byteLength" : 576,
            "byteOffset" : 20088
        },
        {
            "buffer" : 0,
            "byteLength" : 2784,
            "byteOffset" : 20664
        },
        {
            "buffer" : 0,
            "byteLength" : 2784,
            "byteOffset" : 23448
        },
        {
            "buffer" : 0,
            "byteLength" : 480,
            "byteOffset" : 26232
        },
        {
            "buffer" : 0,
            "byteLength" : 2784,
            "byteOffset" : 26712
        },
        {
            "buffer" : 0,
            "byteLength" : 2784,
            "byteOffset" : 29496
        },
        {
            "buffer" : 0,
            "byteLength" : 480,
            "byteOffset" : 32280
        },
        {
            "buffer" : 0,
            "byteLength" : 2784,
            "byteOffset" : 32760
        },
        {
            "buffer" : 0,
            "byteLength" : 2784,
            "byteOffset" : 35544
        },
        {
            "buffer" : 0,
            "byteLength" : 480,
            "byteOffset" : 38328
        },
        {
            "buffer" : 0,
            "byteLength" : 2784,
            "byteOffset" : 38808
        },
        {
            "buffer" : 0,
            "byteLength" : 2784,
            "byteOffset" : 41592
        },
        {
            "buffer" : 0,
            "byteLength" : 480,
            "byteOffset" : 44376
        },
        {
            "buffer" : 0,
            "byteLength" : 3912,
            "byteOffset" : 44856
        },
        {
            "buffer" : 0,
            "byteLength" : 3912,
            "byteOffset" : 48768
        },
        {
            "buffer" : 0,
            "byteLength" : 684,
            "byteOffset" : 52680
        }
    ],
    "buffers" : [
        {
            "byteLength" : 53364,
            "uri" : "data:application/octet-stream;base64,"
        }
    ]
}
